HIERARCHY
ROOT Hips
{
	OFFSET 0.000000 0.000000 0.000000
	CHANNELS 6 Xposition Yposition Zposition Zrotation Yrotation Xrotation 
	JOINT LowerBack
	{
		OFFSET 0.000000 0.000000 0.000000
		CHANNELS 3 Zrotation Yrotation Xrotation
		JOINT Spine
		{
			OFFSET 0.028270 2.035590 -0.193380
			CHANNELS 3 Zrotation Yrotation Xrotation
			JOINT Spine1
			{
				OFFSET 0.056720 2.048850 -0.042750
				CHANNELS 3 Zrotation Yrotation Xrotation
				JOINT Neck
				{
					OFFSET 0.000000 0.000000 0.000000
					CHANNELS 3 Zrotation Yrotation Xrotation
					JOINT Neck1
					{
						OFFSET -0.054170 1.746240 0.172020
						CHANNELS 3 Zrotation Yrotation Xrotation
						JOINT Head
						{
							OFFSET 0.104070 1.761360 -0.123970
							CHANNELS 3 Zrotation Yrotation Xrotation
							End Site
							{
								OFFSET 0.000000 0.000000 0.000000
							}
						}
					}
				}
				JOINT LeftShoulder
				{
					OFFSET 0.000000 0.000000 0.000000
					CHANNELS 3 Zrotation Yrotation Xrotation
					JOINT LeftArm
					{
						OFFSET 3.362410 1.200890 -0.311210
						CHANNELS 3 Zrotation Yrotation Xrotation
						JOINT LeftForeArm
						{
							OFFSET 4.983000 -0.000000 -0.000000
							CHANNELS 3 Zrotation Yrotation Xrotation
							JOINT LeftHand
							{
								OFFSET 3.483560 -0.000000 -0.000000
								CHANNELS 3 Zrotation Yrotation Xrotation
								JOINT LeftFingerBase
								{
									OFFSET 0.000000 0.000000 0.000000
									CHANNELS 3 Zrotation Yrotation Xrotation
									JOINT LeftHandIndex1
									{
										OFFSET 0.715260 -0.000000 -0.000000
										CHANNELS 3 Zrotation Yrotation Xrotation
										End Site
										{
											OFFSET 0.000000 0.000000 0.000000
										}
									}
								}
								JOINT LThumb
								{
									OFFSET 0.000000 0.000000 0.000000
									CHANNELS 3 Zrotation Yrotation Xrotation
									End Site
									{
										OFFSET 0.000000 0.000000 0.000000
									}
								}
							}
						}
					}
				}
				JOINT RightShoulder
				{
					OFFSET 0.000000 0.000000 0.000000
					CHANNELS 3 Zrotation Yrotation Xrotation
					JOINT RightArm
					{
						OFFSET -3.136600 1.374050 -0.404650
						CHANNELS 3 Zrotation Yrotation Xrotation
						JOINT RightForeArm
						{
							OFFSET -5.241900 -0.000000 -0.000000
							CHANNELS 3 Zrotation Yrotation Xrotation
							JOINT RightHand
							{
								OFFSET -3.444170 -0.000000 -0.000000
								CHANNELS 3 Zrotation Yrotation Xrotation
								JOINT RightFingerBase
								{
									OFFSET 0.000000 0.000000 0.000000
									CHANNELS 3 Zrotation Yrotation Xrotation
									JOINT RightHandIndex1
									{
										OFFSET -0.622530 -0.000000 -0.000000
										CHANNELS 3 Zrotation Yrotation Xrotation
										End Site
										{
											OFFSET 0.000000 0.000000 0.000000
										}
									}
								}
								JOINT RThumb
								{
									OFFSET 0.000000 0.000000 0.000000
									CHANNELS 3 Zrotation Yrotation Xrotation
									End Site
									{
										OFFSET 0.000000 0.000000 0.000000
									}
								}
							}
						}
					}
				}
			}
		}
	}
}
}
MOTION
Frames: 18
Frame Time: 0.008333
-3.132510 16.912711 -0.008516 -165.338520 80.267694 -142.760985 5.652430 -1.500834 4.685042 -0.105457 -1.662814 -2.225228 -8.332925 -1.829650 -0.350501 9.292279 7.692548 6.660931 -5.580203 -0.450568 3.417562 0.000000 0.000000 0.000000 -7.085062 -10.797714 2.339243 -67.514356 -24.172696 13.501389 -2.894642 -25.398804 -0.019193 6.912730 -1.889597 -0.126651 -0.083927 0.193291 0.000000 0.000000 0.000000 0.000000 0.000000 0.000000 0.000000 23.343272 2.707312 0.408113 63.356072 10.671263 -7.880012 3.299894 16.390784 0.008908 1.524370 7.151147 0.093022 0.054139 -0.065467 -0.000000 0.000000 0.000000 0.000000 0.000000 0.000000 0.000000 
-3.008793 16.936229 0.000368 -165.963277 79.545188 -143.387222 5.773455 -1.596740 4.847854 -0.070827 -1.754124 -2.198753 -8.274841 -1.924737 -0.353638 9.536705 7.912766 6.757598 -5.529047 -0.448350 3.446218 0.000000 0.000000 0.000000 -6.652678 -10.995328 2.315175 -68.103443 -23.338273 13.178543 -2.866361 -24.082533 -0.018874 6.941800 -1.719352 -0.116301 -0.079391 0.185811 0.000000 0.000000 0.000000 0.000000 0.000000 0.000000 0.000000 23.347716 2.814156 0.397937 63.507072 11.316572 -8.501107 3.328391 15.301445 0.008752 1.563995 6.880093 0.091814 0.055332 -0.062719 -0.000000 0.000000 0.000000 0.000000 0.000000 0.000000 0.000000 
-2.885663 16.958713 0.010789 -166.854054 78.759768 -144.274538 5.852865 -1.700328 4.991686 -0.044162 -1.853254 -2.173348 -8.213862 -2.026775 -0.349974 9.797261 8.076845 6.848753 -5.474651 -0.446126 3.474068 0.000000 0.000000 0.000000 -6.206909 -11.230175 2.293430 -68.647567 -22.513084 12.973792 -2.849050 -22.786764 -0.018208 6.855640 -1.496967 -0.100944 -0.075397 0.178367 0.000000 0.000000 0.000000 0.000000 0.000000 0.000000 0.000000 23.351949 2.868773 0.383921 63.677947 11.956322 -9.058142 3.350599 14.306406 0.008541 1.598174 6.591117 0.089805 0.056376 -0.059995 -0.000000 0.000000 0.000000 0.000000 0.000000 0.000000 0.000000 
-2.763097 16.979965 0.021786 -167.868009 77.918396 -145.275968 5.909000 -1.803974 5.112608 -0.022253 -1.953729 -2.150140 -8.151175 -2.129428 -0.339851 10.066038 8.186348 6.933122 -5.418353 -0.443947 3.500666 0.000000 0.000000 0.000000 -5.775190 -11.493983 2.274926 -69.134887 -21.704753 12.900993 -2.843805 -21.529090 -0.017200 6.639645 -1.217811 -0.080879 -0.071950 0.170992 0.000000 0.000000 0.000000 0.000000 0.000000 0.000000 0.000000 23.353752 2.876185 0.366842 63.856496 12.576102 -9.515224 3.366996 13.435411 0.008288 1.626176 6.295864 0.087297 0.057241 -0.057349 -0.000000 0.000000 0.000000 0.000000 0.000000 0.000000 0.000000 
-2.641215 16.999942 0.032464 -168.884822 77.031111 -146.269083 5.960178 -1.900544 5.209090 -0.001732 -2.049208 -2.130202 -8.087739 -2.226581 -0.325183 10.336027 8.251110 7.011982 -5.360826 -0.441836 3.526241 0.000000 0.000000 0.000000 -5.381549 -11.778758 2.260923 -69.556632 -20.917399 12.962129 -2.850580 -20.328459 -0.015885 6.286561 -0.877556 -0.057306 -0.068998 0.163714 0.000000 0.000000 0.000000 0.000000 0.000000 0.000000 0.000000 23.348811 2.849881 0.347635 64.032479 13.155859 -9.853744 3.378216 12.717695 0.008004 1.653529 6.004981 0.084690 0.057858 -0.054834 -0.000000 0.000000 0.000000 0.000000 0.000000 0.000000 0.000000 
-2.520242 17.018760 0.042104 -169.825079 76.112493 -147.175507 6.019127 -1.983752 5.284426 0.019629 -2.133533 -2.112713 -8.024720 -2.312099 -0.304833 10.600925 8.269329 7.081776 -5.304063 -0.439835 3.549546 0.000000 0.000000 0.000000 -5.041480 -12.069073 2.250804 -69.909539 -20.166393 13.152751 -2.868855 -19.191422 -0.014314 5.799523 -0.482682 -0.032326 -0.066499 0.156557 0.000000 0.000000 0.000000 0.000000 0.000000 0.000000 0.000000 23.339086 2.789797 0.326899 64.192600 13.703337 -10.029226 3.385620 12.157924 0.007719 1.677047 5.740203 0.082084 0.058242 -0.052514 -0.000000 0.000000 0.000000 0.000000 0.000000 0.000000 0.000000 
-2.400439 17.036595 0.050160 -170.636540 75.179186 -147.945535 6.095948 -2.048836 5.343487 0.043652 -2.201798 -2.096105 -7.963310 -2.381004 -0.275972 10.855955 8.242812 7.137856 -5.249740 -0.437944 3.568982 0.000000 0.000000 0.000000 -4.768502 -12.335173 2.243935 -70.192201 -19.480500 13.475055 -2.898274 -18.114503 -0.012569 5.191702 -0.041740 -0.008339 -0.064478 0.149571 0.000000 0.000000 0.000000 0.000000 0.000000 0.000000 0.000000 23.326641 2.699673 0.303954 64.326260 14.226947 -10.013788 3.390498 11.756852 0.007459 1.697228 5.519796 0.079878 0.058394 -0.050424 -0.000000 0.000000 0.000000 0.000000 0.000000 0.000000 0.000000 
-2.282078 17.053740 0.056331 -171.293790 74.248074 -148.557916 6.196413 -2.092211 5.390514 0.071610 -2.250141 -2.081857 -7.903117 -2.429865 -0.246975 11.101076 8.205269 7.191497 -5.195994 -0.436121 3.587554 0.000000 0.000000 0.000000 -4.566346 -12.585824 2.242863 -70.402693 -18.837630 13.884663 -2.935501 -17.123264 -0.010751 4.484926 0.444095 0.012452 -0.062803 0.142783 0.000000 0.000000 0.000000 0.000000 0.000000 0.000000 0.000000 23.303962 2.616573 0.280723 64.433308 14.689205 -9.853572 3.392365 11.534589 0.007229 1.729415 5.346684 0.078975 0.058160 -0.048636 -0.000000 0.000000 0.000000 0.000000 0.000000 0.000000 0.000000 
-2.165464 17.070465 0.060660 -171.798339 73.335948 -149.019772 6.318726 -2.112001 5.433278 0.103069 -2.275956 -2.068211 -7.844643 -2.455998 -0.217299 11.335868 8.159676 7.240874 -5.143880 -0.434367 3.604473 0.000000 0.000000 0.000000 -4.432490 -12.806758 2.246342 -70.544157 -18.247297 14.352916 -2.978280 -16.219828 -0.008961 3.712091 0.961165 0.027645 -0.061472 0.136237 0.000000 0.000000 0.000000 0.000000 0.000000 0.000000 0.000000 23.275307 2.543563 0.257436 64.506809 15.104369 -9.539618 3.391833 11.474810 0.007049 1.770337 5.235824 0.079173 0.057566 -0.047197 -0.000000 0.000000 0.000000 0.000000 0.000000 0.000000 0.000000 
-2.050825 17.087075 0.063384 -172.170889 72.458774 -149.358550 6.454238 -2.108484 5.481267 0.136324 -2.278501 -2.052888 -7.788235 -2.458524 -0.186006 11.562605 8.116410 7.284854 -5.093414 -0.432629 3.619114 0.000000 0.000000 0.000000 -4.360602 -12.974091 2.253495 -70.620029 -17.730651 14.864994 -3.025230 -15.394572 -0.007301 2.914190 1.491057 0.035743 -0.060594 0.130020 0.000000 0.000000 0.000000 0.000000 0.000000 0.000000 0.000000 23.243875 2.492058 0.233221 64.544721 15.477583 -9.084249 3.388477 11.564405 0.006927 1.817189 5.196093 0.080772 0.056610 -0.046128 -0.000000 0.000000 0.000000 0.000000 0.000000 0.000000 0.000000 
-1.938314 17.103763 0.064937 -172.436274 71.628051 -149.604188 6.593423 -2.082969 5.541167 0.169548 -2.258269 -2.034358 -7.734012 -2.437847 -0.152927 11.784161 8.085820 7.323571 -5.044212 -0.430855 3.631305 0.000000 0.000000 0.000000 -4.342755 -13.070989 2.263386 -70.633350 -17.298671 15.404828 -3.074332 -14.645027 -0.005869 2.135643 2.018445 0.036740 -0.060250 0.124208 0.000000 0.000000 0.000000 0.000000 0.000000 0.000000 0.000000 23.211702 2.472872 0.207413 64.547896 15.811911 -8.513603 3.381675 11.789578 0.006859 1.868172 5.228387 0.083674 0.055292 -0.045433 -0.000000 0.000000 0.000000 0.000000 0.000000 0.000000 0.000000 
-1.827943 17.120721 0.065880 -172.631031 70.852244 -149.797897 6.721580 -2.038144 5.619781 0.199881 -2.216991 -2.011338 -7.681935 -2.395643 -0.119187 12.004833 8.078846 7.358709 -4.995507 -0.429002 3.641345 0.000000 0.000000 0.000000 -4.366860 -13.089528 2.275155 -70.587465 -16.953611 15.952777 -3.123463 -13.972300 -0.004737 1.421202 2.525990 0.031537 -0.060492 0.118858 0.000000 0.000000 0.000000 0.000000 0.000000 0.000000 0.000000 23.181126 2.496857 0.179821 64.519756 16.107056 -7.860765 3.370379 12.135376 0.006835 1.920982 5.329211 0.087876 0.053606 -0.045107 -0.000000 0.000000 0.000000 0.000000 0.000000 0.000000 0.000000 
-1.719665 17.137996 0.066722 -172.783099 70.133374 -149.970074 6.826922 -1.976022 5.718842 0.224951 -2.156188 -1.984881 -7.631565 -2.333630 -0.091158 12.227931 8.091758 7.396117 -4.947518 -0.427161 3.650955 0.000000 0.000000 0.000000 -4.412093 -13.074144 2.286911 -70.487685 -16.640051 16.425755 -3.167236 -13.413038 -0.003953 0.814285 3.003822 0.022533 -0.061108 0.113899 0.000000 0.000000 0.000000 0.000000 0.000000 0.000000 0.000000 23.157039 2.555812 0.154409 64.460676 16.375280 -7.135970 3.354710 12.571546 0.006846 1.968606 5.492646 0.092880 0.051642 -0.045171 -0.000000 0.000000 0.000000 0.000000 0.000000 0.000000 0.000000 
-1.613330 17.155606 0.068048 -172.934768 69.474209 -150.163887 6.894115 -1.901897 5.842654 0.241943 -2.080395 -1.951760 -7.583352 -2.255888 -0.060054 12.455913 8.140076 7.428361 -4.898601 -0.425135 3.657793 0.000000 0.000000 0.000000 -4.481072 -12.951022 2.298077 -70.333675 -16.436373 16.917904 -3.209140 -12.921204 -0.003530 0.344342 3.422402 0.012228 -0.062453 0.109490 0.000000 0.000000 0.000000 0.000000 0.000000 0.000000 0.000000 23.136600 2.669246 0.125102 64.380923 16.610259 -6.398384 3.333122 13.095945 0.006863 2.014891 5.704895 0.098883 0.049340 -0.045521 -0.000000 0.000000 0.000000 0.000000 0.000000 0.000000 0.000000 
-1.508771 17.173499 0.070148 -173.105204 68.868052 -150.397997 6.914966 -1.817179 5.987920 0.249040 -1.991022 -1.914900 -7.536850 -2.164198 -0.035444 12.689993 8.202348 7.463288 -4.850532 -0.423152 3.664347 0.000000 0.000000 0.000000 -4.548802 -12.808099 2.306008 -70.132954 -16.243887 17.304565 -3.242259 -12.558057 -0.003449 0.038129 3.775540 0.003721 -0.064074 0.105437 0.000000 0.000000 0.000000 0.000000 0.000000 0.000000 0.000000 23.128700 2.806794 0.099166 64.276956 16.838532 -5.623676 3.307060 13.667098 0.006882 2.047919 5.957732 0.105187 0.046885 -0.046183 -0.000000 0.000000 0.000000 0.000000 0.000000 0.000000 0.000000 
-1.405708 17.191602 0.073319 -173.324082 68.311423 -150.698795 6.881799 -1.726458 6.153051 0.245022 -1.892568 -1.872963 -7.492002 -2.062770 -0.010715 12.929204 8.291874 7.496253 -4.801584 -0.421056 3.669234 0.000000 0.000000 0.000000 -4.621416 -12.591791 2.310808 -69.884507 -16.118840 17.673546 -3.270179 -12.292216 -0.003659 -0.101377 4.038816 -0.000787 -0.066194 0.101818 0.000000 0.000000 0.000000 0.000000 0.000000 0.000000 0.000000 23.126217 2.984822 0.071855 64.159838 17.049100 -4.873865 3.275836 14.284652 0.006878 2.076638 6.232160 0.111692 0.044220 -0.047054 -0.000000 0.000000 0.000000 0.000000 0.000000 0.000000 0.000000 
-1.303967 17.209781 0.077429 -173.600920 67.795242 -151.072290 6.793973 -1.632052 6.332694 0.229899 -1.787741 -1.827233 -7.448447 -1.954374 0.013521 13.170470 8.407105 7.528567 -4.751369 -0.418858 3.672985 0.000000 0.000000 0.000000 -4.696792 -12.312575 2.312042 -69.591009 -16.049326 18.029083 -3.292895 -12.133326 -0.004085 -0.082491 4.200074 -0.000096 -0.068729 0.098575 0.000000 0.000000 0.000000 0.000000 0.000000 0.000000 0.000000 23.124603 3.200232 0.043736 64.034766 17.242523 -4.176538 3.240263 14.935527 0.006838 2.105788 6.512126 0.118596 0.041385 -0.048089 -0.000000 0.000000 0.000000 0.000000 0.000000 0.000000 0.000000 
-1.203326 17.227907 0.082313 -173.938053 67.309058 -151.516431 6.654547 -1.534205 6.520046 0.204118 -1.677370 -1.780268 -7.405886 -1.840091 0.032694 13.409621 8.519128 7.563164 -4.702851 -0.416783 3.676703 0.000000 0.000000 0.000000 -4.761739 -12.039491 2.307531 -69.259472 -15.962919 18.287965 -3.307101 -12.123127 -0.004637 0.080641 4.256948 0.005896 -0.071319 0.095542 0.000000 0.000000 0.000000 0.000000 0.000000 0.000000 0.000000 23.131920 3.415130 0.020332 63.894174 17.452464 -3.483792 3.202770 15.583447 0.006773 2.122499 6.790434 0.124799 0.038609 -0.049282 -0.000000 0.000000 0.000000 0.000000 0.000000 0.000000 0.000000 
